<svg  viewBox="0 0 1019 1023" xmlns="http://www.w3.org/2000/svg">
<path d="M645.067 7.25628C641.067 11.7896 614.933 42.8563 587.067 76.1896C518.933 157.656 484.4 198.723 398.8 300.59C378.533 324.723 360.933 345.79 359.733 347.39L357.467 350.456L409.733 379.656C458.933 407.123 462.533 409.39 472.133 418.856C480.4 427.256 482.933 430.723 486.667 439.523C490.533 448.723 491.2 452.056 491.733 463.656C492.133 473.79 491.733 479.123 490 484.99C482.533 511.123 462.533 530.056 436.667 535.523C424.933 537.923 418.8 538.056 408.4 535.523C402.267 534.056 310.133 505.123 293.333 499.39C291.6 498.723 291.6 498.99 293.333 500.723C294.4 501.79 307.333 512.723 322.133 525.123C383.2 576.323 429.467 615.123 465.467 645.256L503.733 677.39L512.8 666.456C517.867 660.456 534.267 640.856 549.333 622.856C594.133 569.39 639.2 515.79 660.667 490.19C708.533 433.123 771.333 358.19 823.867 295.523C839.867 276.456 863.2 248.59 875.867 233.656C888.4 218.59 898.667 206.056 898.533 205.656C898.533 205.256 883.733 192.59 865.733 177.523C847.6 162.456 823.2 142.056 811.467 132.19C732.267 65.5229 656.4 1.92295 654.533 0.589613C652.533 -0.877054 651.333 0.0562798 645.067 7.25628ZM595.733 237.523C644.133 249.123 679.467 290.856 682.267 339.656C683.067 353.923 681.067 366.99 675.733 381.123C671.733 391.79 661.467 406.723 651.733 415.523C620.8 443.923 576.267 449.39 536.667 429.656C508.4 415.656 489.467 394.056 478.8 363.79C474.267 350.856 474.133 349.39 474 332.19C474 311.79 476.267 301.79 485.067 284.856C492.4 270.59 510.533 252.856 525.333 245.656C531.6 242.723 541.2 238.99 546.667 237.523C560.4 234.056 581.067 234.056 595.733 237.523Z" fill="black"/>
<path d="M277.334 169.656C266.667 171.923 175.734 197.39 130.4 210.856C120.134 213.923 114.4 214.856 105.867 214.856H94.667V318.056V421.39L103.734 418.856C108.667 417.523 121.067 414.19 131.334 411.523C141.6 408.856 154.134 405.523 159.334 404.056C171.467 400.723 181.334 400.723 188.134 404.19C191.067 405.79 200.134 413.923 208.4 422.323C223.734 438.19 234.4 446.723 246 452.456C253.334 456.19 288 467.79 364.267 492.19C418.667 509.523 423.6 510.456 436.534 506.056C445.067 503.123 456.134 492.723 460.134 483.923C464.667 473.523 464.4 459.123 459.467 449.123C457.6 445.123 453.734 439.79 450.934 437.256C448.267 434.856 414 414.856 374.934 392.99C319.467 361.923 303.067 352.19 300.267 348.456C297.067 344.323 296.667 342.456 296.667 334.19C296.667 325.79 297.067 324.056 300.534 319.656C306.934 311.123 312.4 309.523 334.8 309.523H354.134L386.8 270.59C404.667 249.256 426.934 222.723 436.267 211.656C445.6 200.59 453.334 191.256 453.334 190.856C453.334 190.456 443.6 188.456 431.6 186.323C419.734 184.323 398.667 180.456 384.667 177.923C321.6 166.456 300.4 164.856 277.334 169.656Z" fill="black"/>
<path d="M0 193.79C0 196.19 0.933333 205.923 1.86667 215.523C2.93333 224.99 5.06667 246.99 6.66667 264.19C8.13333 281.39 11.4667 317.39 14 344.19C16.5333 370.99 19.8667 406.59 21.3333 423.523C22.8 440.323 24.4 456.457 24.8 459.123L25.6 464.19H44.8H64V326.857V189.523H32H0V193.79Z" fill="black"/>
<path d="M287.333 681.39C275.333 684.323 264.4 693.656 258.8 705.39C255.866 711.656 255.333 714.723 255.333 724.19C255.333 740.99 258.933 747.656 276.4 762.59C308 789.79 338.133 816.59 358.533 835.39C401.466 874.99 424.933 891.123 457.466 903.523C481.733 912.856 477.466 912.59 596 913.523C714.266 914.456 709.333 914.056 727.066 923.123C734.8 926.99 748.8 939.656 756.133 949.123L759.333 953.39L799.333 949.523C821.333 947.39 846.8 944.99 856 944.19C865.2 943.39 894 940.723 920 938.19C946 935.656 972.666 933.256 979.066 932.723C989.066 931.923 990.8 931.523 990.266 929.656C989.2 926.19 957.866 845.79 952.266 832.19C923.866 763.923 898.533 727.123 866.533 707.523C854.933 700.323 836.133 693.79 818.266 690.456C802.266 687.523 800.133 687.523 684 687.523H566L559.2 691.123C544.533 698.856 537.333 710.456 537.333 726.323C537.333 739.79 540.266 747.39 549.2 756.323C561.2 768.323 560.533 768.19 624.266 768.19C682.666 768.19 685.2 768.456 689.866 774.99C693.333 780.056 692.533 785.256 687.466 790.323L682.933 794.856H597.733C505.466 794.856 497.866 794.323 476.666 787.523C461.733 782.59 452.933 777.523 420.8 754.99C353.066 707.656 316.666 683.656 310 681.923C302.933 680.056 293.733 679.923 287.333 681.39Z" fill="black"/>
<path d="M1008 960.323C998.667 961.39 977.467 963.39 825.334 977.523C793.467 980.456 763.734 983.123 759.334 983.523C754.934 983.923 749.334 984.59 747.067 984.99L742.667 985.656V1004.19V1022.86H880.667H1018.67V990.856C1018.67 973.256 1018.53 958.99 1018.4 958.99C1018.13 959.123 1013.47 959.79 1008 960.323Z" fill="black"/>
<path d="M513.247 337.66C513.354 341.029 514.393 343.374 516.605 345.2C519.085 347.267 523.274 347.75 526.564 346.328C528.96 345.321 529.023 345.221 538.459 330.915C548.612 315.591 549.366 314.736 554.675 312.348C557.102 311.291 564.053 309.524 564.604 309.874C564.804 310.001 559.188 319.287 552.037 330.548C540.054 349.416 539.055 351.1 538.939 353.273C538.405 360.308 546.676 365.421 552.998 361.991C554.671 361.016 556.296 358.677 569.128 338.803L583.358 316.727L584.769 318.045C589.625 322.674 592.539 331.688 591.56 339.424L591 343.844L582.033 358.517C573.384 372.69 573.084 373.272 573.041 375.773C573.022 379.342 575.34 382.992 578.629 384.448C581.586 385.764 580.226 386.025 625.212 377.229C653.313 371.687 659.81 370.194 661.573 368.856C665.44 365.974 666.408 360.689 663.753 356.685C661.982 353.945 660.244 352.701 657.438 352.253C656.314 352.032 643.484 354.208 628.927 357.114L602.463 362.29L605.322 357.013C612.513 343.81 612.617 328.495 605.633 314.719C603.774 311.011 598.698 304.627 595.426 301.706C593.815 300.261 593.797 300.179 595.068 298.178C599.009 291.972 597.302 284.707 591.284 282.571C586.144 280.711 582.739 282.201 579.084 287.957L576.51 292.011L573.686 291.481C572.148 291.137 569.429 290.885 567.669 290.891C565.991 290.879 564.427 290.799 564.327 290.735C564.177 290.64 565.602 288.174 567.509 285.171C571.641 278.665 572.348 276.445 571.549 273.058C569.979 266.794 563.169 263.803 557.829 267.014C555.993 268.025 554.195 270.746 534.521 301.726L513.195 335.309L513.247 337.66Z" fill="black"/>
</svg>
