<svg  viewBox="0 0 322 313" xmlns="http://www.w3.org/2000/svg">
<path fill-rule="evenodd" clip-rule="evenodd" d="M161.215 125.86L42.6777 7.32233C32.9146 -2.44077 17.0854 -2.44078 7.32233 7.32233C-2.44078 17.0854 -2.44077 32.9146 7.32233 42.6777L140.77 176.126C141.53 177.169 142.381 178.167 143.322 179.108C153.085 188.871 168.915 188.871 178.678 179.108L314.678 43.1083C324.441 33.3452 324.441 17.5161 314.678 7.75299C304.915 -2.01011 289.085 -2.01011 279.322 7.75299L161.215 125.86Z"/>
<path fill-rule="evenodd" clip-rule="evenodd" d="M161.215 251.86L42.6777 133.322C32.9146 123.559 17.0854 123.559 7.32233 133.322C-2.44078 143.085 -2.44077 158.915 7.32233 168.678L140.77 302.126C141.53 303.169 142.381 304.167 143.322 305.108C153.085 314.871 168.915 314.871 178.678 305.108L314.678 169.108C324.441 159.345 324.441 143.516 314.678 133.753C304.915 123.99 289.085 123.99 279.322 133.753L161.215 251.86Z"/>
</svg>
