<svg viewBox="0 0 557 585" xmlns="http://www.w3.org/2000/svg">
<path fill-rule="evenodd" clip-rule="evenodd" d="M53.3333 38.697C61.8667 21.3636 79.6 6.96364 98.8 1.6303C104.133 0.163638 126 -0.103029 216 0.0303042L326.667 0.296971L334.667 3.36364C351.467 9.6303 367.067 23.2303 374.667 38.297C375.364 39.6589 376 40.8591 376.58 41.9886C367.116 44.0847 358.88 47.034 352.136 50.0085C345.542 52.9166 340.322 55.8709 336.705 58.1325C336.49 58.267 336.28 58.3991 336.077 58.5286C333.357 55.275 329.878 52.7533 325.733 50.9636C321.333 49.2303 307.333 48.9636 213.733 48.9636C112.8 48.9636 106.4 49.097 101.333 51.497C94.5333 54.5636 89.2 60.8303 87.3333 67.6303C86.4 71.097 86 98.5636 86.2667 149.23C86.5888 218.603 86.392 229.767 91.8762 235.386C93.2012 236.743 94.8577 237.777 96.9333 239.23L102.4 242.964L211.2 243.364C284.8 243.63 321.6 243.364 324.8 242.297C331.067 240.564 338.8 232.03 340.667 225.097C340.976 223.859 341.227 220.189 341.414 213.929L355.611 249.526L355.647 249.631C355.718 249.84 355.828 250.168 355.972 250.608C356.259 251.489 356.681 252.819 357.192 254.545C358.215 257.999 359.593 263.027 360.974 269.212C363.746 281.626 366.483 298.487 366.483 316.533V382.533H337.983C327.853 382.533 320.827 386.204 316.367 390.887C314.257 393.102 312.914 395.342 312.08 397.093C311.661 397.973 311.362 398.747 311.153 399.362C311.135 399.413 311.119 399.463 311.102 399.512C311.091 399.547 311.08 399.581 311.069 399.615L311.05 399.672L310.619 400.706C310.204 401.7 309.595 403.159 308.818 405.019C307.264 408.74 305.039 414.066 302.352 420.485C296.979 433.324 289.764 450.535 282.393 468.025C275.021 485.518 267.5 503.275 261.514 517.211C258.519 524.183 255.92 530.174 253.919 534.689C252.918 536.949 252.079 538.81 251.424 540.225C251.096 540.934 250.825 541.505 250.61 541.946C250.503 542.166 250.417 542.339 250.349 542.471C250.316 542.536 250.29 542.587 250.271 542.623C250.251 542.661 250.242 542.677 250.242 542.677C247.207 548.139 247.7 553.992 249.108 558.471C250.535 563.007 253.191 567.225 256.27 570.743C262.161 577.475 271.802 584.033 282.483 584.033H428.01L428 584.297H214H0V570.297C0.133333 554.297 1.6 550.164 9.6 544.03C14.1333 540.564 15.4667 540.297 29.4667 539.897L44.4 539.364L45.3333 515.364C45.8667 502.164 45.8667 396.164 45.3333 279.764C44.4068 75.1124 43.9833 58.692 50.0926 45.238C51.0165 43.2034 52.0898 41.2366 53.3333 38.697ZM535.544 470.132C542.541 453.855 547.382 431.896 550.8 402.164C552.533 387.097 553.2 365.897 553.6 303.63C554.267 225.63 554.133 224.164 551.467 216.83C548 207.63 538.933 193.897 528.267 181.63C523.477 176.15 510.704 162.765 495.851 147.474L493.777 164.327L465.953 243.553C467.289 245.826 468.925 248.313 470.933 251.364C477.067 260.564 495.6 280.164 505.6 287.897L513.067 293.63L512.267 334.964C511.698 362.654 510.437 385.783 508.435 404.559L535.544 470.132ZM461.092 382.533C459.978 358.722 458.973 350.591 456.533 341.364C455.105 335.651 453.285 330.581 450.983 326.086V382.533H461.092Z" fill="white"/>
<path fill-rule="evenodd" clip-rule="evenodd" d="M329.867 83.108C336.647 68.2499 359.439 55.2671 388.001 50.074C402.282 47.3332 413.534 47.3332 428.103 49.9298C457.82 55.1229 480.467 67.8171 487.391 83.108C492.585 94.3597 489.988 133.308 482.343 161.005C481.044 165.765 475.418 181.633 469.937 196.347C464.455 211.061 458.108 228.227 455.944 234.574L451.761 246.114H408.629H365.497L361.314 234.574C359.863 230.316 357.372 223.526 354.976 216.992L354.974 216.987L354.972 216.982L354.972 216.981C353.797 213.778 352.645 210.638 351.649 207.887C340.686 178.459 337.08 168.073 334.339 158.12C326.982 130.712 324.818 94.2155 329.867 83.108ZM472.822 81.0884C472.822 77.0493 455.944 67.6729 441.23 63.4895C436.182 62.047 427.238 60.4602 421.612 59.8832C411.947 59.0177 410.937 59.162 409.495 61.9028C407.475 65.7976 409.639 67.3844 418.727 68.3942C433.873 70.1252 446.568 74.02 457.531 80.2229C467.196 85.7045 468.783 86.2815 470.658 84.262C471.812 83.108 472.822 81.6654 472.822 81.0884ZM377.182 72.4332C392.617 69.1154 395.069 67.9614 394.637 64.6436C394.06 60.4602 386.847 60.0275 376.316 63.3453C367.806 66.0861 364.199 69.5482 367.084 72.4332C368.527 73.8758 370.691 73.8758 377.182 72.4332ZM304.335 118.738C304.767 105.9 305.2 103.448 307.508 101.716C309.095 100.562 312.124 99.6969 314.144 99.6969H318.039L318.904 118.161C319.337 128.403 320.202 137.78 320.779 139.222C321.645 141.386 320.924 141.675 314.721 141.242C305.056 140.665 303.902 137.924 304.335 118.738ZM368.239 257.943C371.989 267.752 377.038 298.622 379.779 327.905L380.789 337.715H408.629H436.47L437.48 327.905C440.221 298.622 445.27 267.752 449.02 257.943C450.03 255.635 447.434 255.49 408.629 255.49C369.825 255.49 367.229 255.635 368.239 257.943ZM381.221 487.017L380.789 416.621L380.5 346.37H408.63H436.759L436.47 416.621L436.038 487.017L430.268 489.18C422.478 491.921 394.781 491.921 386.992 489.18L381.221 487.017ZM330.733 394.406C327.559 396.137 323.664 399.599 321.933 402.196C320.347 404.648 310.249 426.719 299.718 451.242C289.188 475.621 276.349 505.048 271.3 516.589C266.252 528.129 261.635 540.535 261.203 544.141C259.76 556.402 266.107 567.943 277.359 572.992C282.841 575.588 289.909 575.732 408.629 575.732C527.35 575.732 534.418 575.588 539.9 572.992C550.863 568.087 557.499 556.547 556.2 544.718C555.479 538.371 500.663 410.13 495.181 402.052C493.595 399.599 489.7 396.137 486.526 394.406C481.477 391.521 478.737 391.088 463.157 391.088H445.414V395.704C445.558 399.455 446.568 401.042 450.174 403.35C455.368 406.668 458.541 413.736 462.003 430.037C463.301 435.951 465.898 447.636 467.773 456.002C469.351 463.043 471.951 474.475 474.025 483.596L474.025 483.6L475.13 488.459C476.778 496.226 478.905 505.24 480.181 510.648L480.182 510.651C480.348 511.354 480.5 511.996 480.634 512.567C480.732 512.986 480.822 513.366 480.9 513.704C485.084 530.148 482.343 540.535 472.245 546.738C467.629 549.623 465.465 549.767 408.629 549.767C351.794 549.767 349.63 549.623 345.014 546.738C337.945 542.41 334.339 535.63 334.339 526.831V519.474H324.386C313.999 519.474 310.393 517.598 312.124 513.127C312.845 511.251 315.298 510.818 325.107 510.818H337.08L338.522 505.337C341.407 495.095 341.407 494.951 329.29 494.951C320.924 494.951 318.183 494.518 317.606 492.787C315.73 488.171 319.769 486.295 331.598 486.295C342.85 486.295 342.994 486.295 343.86 482.256C344.151 480.8 344.573 479.017 344.906 477.611C345.067 476.928 345.208 476.334 345.302 475.909C345.879 473.745 344.581 473.313 334.772 473.024C323.809 472.591 323.52 472.447 323.52 468.985C323.52 465.523 323.809 465.379 335.349 464.946L347.178 464.513L348.764 459.176C349.486 456.291 350.207 453.406 350.207 452.684C350.207 452.107 345.447 451.675 339.532 451.675C330.733 451.675 328.713 451.242 327.992 449.222C326.261 445.039 331.021 443.019 342.562 443.019C351.649 443.019 353.092 442.731 353.092 440.423C353.092 439.125 353.525 436.528 353.958 434.653C354.823 431.623 354.535 431.479 344.725 431.479C334.339 431.479 331.887 430.037 333.762 424.988C334.483 423.257 337.224 422.824 346.024 422.824C355.833 422.824 357.42 422.536 357.42 420.227C357.564 415.179 363.19 405.369 367.517 402.917C370.979 401.042 371.845 399.455 371.845 395.704V391.088H354.246C338.522 391.088 335.782 391.521 330.733 394.406ZM363.334 435.086C365.93 423.978 368.671 414.025 369.537 412.871C370.691 411.284 371.268 420.805 371.556 449.944L371.845 489.036L377.182 493.364C383.818 498.846 397.955 501.442 415.265 500.288C428.392 499.423 436.759 496.826 442.096 491.777C445.414 488.748 445.414 488.315 445.414 449.655C445.414 416.333 445.702 410.996 447.433 412.727C448.443 413.881 450.463 420.083 451.905 426.431C454.213 437.682 459.839 462.35 462.724 474.034L462.865 474.651C463.779 478.673 466.626 491.188 469.216 503.318C472.926 520.226 475.764 529.594 472.314 534.776C467.58 541.884 451.013 541.112 408.629 541.112C353.813 541.112 351.938 540.968 348.332 538.227C342.129 533.322 342.273 528.706 350.928 490.623C353.076 480.957 355.544 469.94 357.785 459.937C360.059 449.787 362.099 440.68 363.334 435.086Z" fill="white"/>
</svg>
