<svg  viewBox="0 0 738 585" xmlns="http://www.w3.org/2000/svg">
<path fill-rule="evenodd" clip-rule="evenodd" d="M224.445 15.0478C226.578 13.8478 232.578 12.3812 237.512 11.8478C260.445 8.9145 274.978 13.4478 287.778 27.7145C295.912 36.6478 311.778 65.7145 320.045 86.7812C323.778 96.1145 326.445 109.448 325.378 113.714C324.578 116.648 324.178 116.781 312.845 115.981C293.912 114.781 272.312 121.314 259.512 132.381C256.312 135.048 253.512 137.048 253.245 136.781C251.512 134.914 218.978 39.0478 217.245 30.7812C216.045 24.9145 219.378 17.5812 224.445 15.0478ZM265.512 166.115C265.245 151.715 272.445 143.448 289.912 138.382C347.112 121.448 386.979 181.315 419.912 333.582C421.779 342.382 424.579 355.315 426.312 362.248C429.912 377.848 430.179 394.382 426.979 400.382C423.512 406.648 384.845 444.915 381.912 444.915C375.645 444.915 364.179 450.782 356.579 457.715C352.312 461.715 348.445 464.515 348.045 463.848C347.645 463.182 346.179 458.515 344.845 453.448C344.579 452.529 344.212 451.255 343.764 449.699C341.743 442.679 338.071 429.927 334.579 418.248C330.445 403.982 324.712 384.382 321.912 374.915C315.512 352.782 302.312 307.715 288.579 260.915C273.779 209.982 265.645 176.915 265.512 166.115ZM569.912 387.715C524.445 390.915 489.912 398.915 460.845 413.182C444.712 421.048 433.912 428.648 421.645 440.648L412.579 449.448L419.912 455.848C438.312 472.248 441.645 497.848 428.045 518.115L423.379 524.915H576.445H729.512L732.312 515.182C736.979 499.448 738.312 486.915 737.512 468.248C736.445 441.582 729.645 423.582 715.245 408.782C706.712 400.115 692.179 392.515 679.912 390.382C659.245 386.782 602.179 385.448 569.912 387.715ZM353.645 473.982C358.712 463.715 364.978 457.982 375.512 454.248C389.645 449.182 404.312 451.982 415.245 461.848C424.712 470.382 428.578 478.915 428.578 491.448C428.578 507.848 420.712 520.648 406.312 527.715C401.112 530.382 397.778 530.915 388.578 530.915C378.445 530.915 376.445 530.515 370.045 526.915C356.845 519.582 349.245 506.782 349.245 491.582C349.245 484.382 350.045 481.315 353.645 473.982ZM415.912 473.982C413.645 470.915 408.978 466.515 405.645 464.515C398.312 459.982 385.512 458.515 378.045 461.315C365.512 466.115 357.512 477.848 357.378 491.582C357.378 502.115 360.578 509.048 368.845 516.115C384.445 529.582 408.845 524.382 417.912 505.582C420.312 500.515 420.712 497.715 420.312 489.582C419.912 481.315 419.245 478.915 415.912 473.982ZM383.245 475.715C374.445 479.315 369.645 489.315 372.979 497.181C377.645 507.848 389.112 511.981 397.912 505.981C400.445 504.248 403.245 501.315 404.179 499.581C408.445 491.315 404.312 479.715 395.912 476.115C390.712 473.981 387.912 473.848 383.245 475.715ZM396.846 559.048C390.979 553.848 392.312 543.448 399.246 539.981C401.912 538.648 434.712 538.248 554.312 538.248H706.179L710.046 542.115C714.846 547.048 715.112 552.648 710.712 557.848L707.512 561.581H553.512C405.512 561.581 399.379 561.448 396.846 559.048Z" fill="black"/>
<path fill-rule="evenodd" clip-rule="evenodd" d="M262.623 243.458C248.098 243.468 230.978 243.435 211.2 243.364L102.4 242.964L96.9333 239.23C94.8577 237.777 93.2012 236.744 91.8762 235.386C86.392 229.767 86.5888 218.603 86.2667 149.23C86 98.5637 86.4 71.097 87.3333 67.6303C89.2 60.8303 94.5333 54.5637 101.333 51.497C106.119 49.2302 112.094 48.9854 197.79 48.9653C195.724 41.6293 194.645 36.1223 195.105 33.6403C197.605 20.1403 198.605 18.1403 198.605 18.1403C198.605 18.1403 201.226 8.0886 210.133 0.0220876C125.042 -0.0906315 104.015 0.196072 98.8 1.63033C79.6 6.96366 61.8667 21.3637 53.3333 38.697C52.0898 41.2367 51.0165 43.2034 50.0926 45.238C43.9833 58.692 44.4068 75.1125 45.3333 279.764C45.8667 396.164 45.8667 502.164 45.3333 515.364L44.4 539.364L29.4667 539.897C15.4667 540.297 14.1333 540.564 9.6 544.03C1.6 550.164 0.133333 554.297 0 570.297V584.297H214H428L428.06 582.667C404.246 581.811 388.167 580.635 385.605 579.14C373.605 572.141 372.105 549.14 372.105 549.14L354.105 541.14C340.384 535.042 335.96 523.423 332.639 514.7C331.603 511.98 330.675 509.542 329.605 507.64C325.105 499.641 329.605 474.14 329.605 474.14C329.605 474.14 286.813 327.348 262.623 243.458ZM341.079 81.5809C341.088 81.6009 341.096 81.6208 341.105 81.6404C346.105 93.1403 346.105 121.14 346.105 121.14C346.105 121.14 373.472 150.191 383.002 160.386C382.64 67.8132 382.671 55.5673 378.178 45.3008C377.226 43.1257 376.071 41.0394 374.667 38.297C367.067 23.2303 351.467 9.63033 334.667 3.36366L326.667 0.296998L291.756 0.212877C292.586 0.684999 293.369 1.16178 294.105 1.64043C300.154 5.57216 314.252 29.811 325.556 50.8964C325.617 50.9186 325.676 50.941 325.733 50.9637C331.6 53.497 336.133 57.497 339.067 62.9637C340.141 64.8984 340.716 68.2964 341.079 81.5809ZM434.007 307.421L441.605 338.64C441.605 338.64 449.605 353.641 450.605 369.64C451.605 385.64 446.605 394.14 446.605 394.14L461.368 388.684C460.132 360.041 459.172 351.344 456.533 341.364C452.607 325.657 445.716 314.808 434.007 307.421ZM510.697 376.472C523.303 373.967 537.811 371.362 552.738 369.241C553.149 354.375 553.406 333.834 553.6 303.63C554.267 225.63 554.133 224.164 551.467 216.83C548 207.63 538.933 193.897 528.267 181.63C514.4 165.764 433.6 83.6303 429.2 80.8303C426.667 79.3637 422.667 78.297 418.933 78.297C407.2 78.297 398.4 90.5637 402 101.63C403.2 105.23 411.2 114.297 431.2 134.564L458.667 162.564L459.333 196.83L459.334 196.861C460.133 234.83 460.136 234.968 470.933 251.364C477.067 260.564 495.6 280.164 505.6 287.897L513.067 293.63L512.267 334.964C511.955 350.163 511.434 363.987 510.697 376.472Z" fill="black"/>
</svg>
