<?xml version="1.0" standalone="no"?>
<!DOCTYPE svg PUBLIC "-//W3C//DTD SVG 20010904//EN"
 "http://www.w3.org/TR/2001/REC-SVG-20010904/DTD/svg10.dtd">
<svg version="1.0" xmlns="http://www.w3.org/2000/svg"
 width="480.000000pt" height="384.000000pt" viewBox="0 0 480.000000 384.000000"
 preserveAspectRatio="xMidYMid meet">

<g transform="translate(0.000000,384.000000) scale(0.100000,-0.100000)"
fill="#000000" stroke="none">
<path d="M2342 3760 c-24 -5 -63 -20 -86 -33 -23 -13 -344 -250 -712 -527
-368 -277 -824 -621 -1014 -763 -190 -143 -361 -275 -380 -294 -31 -29 -35
-39 -35 -84 0 -46 4 -54 37 -85 48 -44 96 -46 156 -6 23 15 498 370 1055 790
954 717 1015 762 1053 762 39 0 101 -45 1065 -771 563 -424 1038 -780 1054
-790 103 -64 228 52 171 159 -8 15 -161 140 -340 277 l-325 250 0 296 c-1 291
-1 297 -24 330 -12 18 -38 44 -56 56 -33 22 -42 23 -244 23 -194 0 -212 -2
-243 -21 -52 -32 -74 -76 -74 -148 0 -33 -3 -61 -6 -61 -3 0 -176 129 -384
288 -209 158 -408 302 -442 320 -70 36 -152 48 -226 32z"/>
<path d="M2299 3017 c-47 -24 -1460 -1099 -1494 -1137 -20 -22 -20 -38 -23
-764 -2 -714 -2 -743 17 -806 37 -122 131 -224 251 -273 53 -21 67 -22 448
-25 l392 -3 0 509 c0 512 5 592 37 657 33 65 84 114 151 147 l67 33 250 0
c241 0 252 -1 296 -23 75 -37 125 -87 161 -160 l33 -67 3 -548 3 -548 422 3
422 3 59 28 c119 55 199 146 236 266 19 60 20 94 20 802 l0 740 -37 39 c-54
55 -1439 1109 -1488 1131 -60 27 -169 26 -226 -4z"/>
</g>
</svg>
