<?xml version="1.0" standalone="no"?>
<!DOCTYPE svg PUBLIC "-//W3C//DTD SVG 20010904//EN"
 "http://www.w3.org/TR/2001/REC-SVG-20010904/DTD/svg10.dtd">
<svg version="1.0" xmlns="http://www.w3.org/2000/svg"
 width="3488.000000pt" height="2321.000000pt" viewBox="0 0 3488.000000 2321.000000"
 preserveAspectRatio="xMidYMid meet">

<g transform="translate(0.000000,2321.000000) scale(0.100000,-0.100000)"
fill="#000000" stroke="none">
<path d="M4870 22279 c-712 -36 -1423 -238 -1994 -567 l-78 -45 28 -22 c16
-13 3067 -2530 6779 -5594 3713 -3065 6777 -5590 6810 -5612 333 -222 816
-277 1213 -138 106 37 239 106 314 162 40 30 13504 11139 13571 11197 17 15
-273 167 -511 269 -404 173 -822 277 -1353 338 -133 16 -1069 17 -12384 18
-6732 1 -12310 -1 -12395 -6z"/>
<path d="M1823 20833 c-351 -437 -559 -908 -640 -1448 -17 -115 -18 -452 -18
-7625 0 -7186 1 -7510 18 -7625 67 -443 215 -829 459 -1195 101 -152 250 -345
267 -345 9 0 11011 9077 11078 9140 l32 30 -5551 4580 c-3053 2519 -5554 4581
-5558 4583 -4 2 -43 -41 -87 -95z"/>
<path d="M26853 16347 c-3054 -2520 -5551 -4585 -5550 -4589 1 -4 10628 -8779
11061 -9133 l48 -39 35 39 c75 87 206 268 276 381 218 350 352 716 414 1129
17 115 18 452 18 7625 0 7173 -1 7510 -18 7625 -81 543 -288 1009 -644 1453
-41 50 -78 92 -81 92 -4 0 -2505 -2062 -5559 -4583z"/>
<path d="M8352 6438 c-5525 -4561 -5551 -4583 -5529 -4601 45 -35 486 -247
627 -301 463 -175 931 -270 1457 -296 269 -13 24237 -13 24506 0 526 26 994
121 1457 296 143 55 585 267 626 301 21 18 -47 75 -5522 4593 -3049 2516
-5550 4579 -5557 4584 -10 6 -211 -154 -708 -565 -941 -779 -895 -741 -1021
-826 -139 -93 -413 -228 -573 -283 -545 -186 -1122 -211 -1675 -70 -322 81
-650 234 -900 418 -41 30 -420 341 -843 689 -423 349 -774 636 -781 639 -6 2
-2510 -2058 -5564 -4578z"/>
</g>
</svg>
