<svg width="172" height="335" viewBox="0 0 172 335" fill="none" xmlns="http://www.w3.org/2000/svg">
<g id="Rocket">
<g id="Ship">
    <path id="Top" d="M114.482 63.7163L87.2763 3.80353C86.3885 1.84841 83.6115 1.84839 82.7237 3.80352L55.5175 63.7163C54.7659 65.3715 55.976 67.25 57.7938 67.25H112.206C114.024 67.25 115.234 65.3715 114.482 63.7163Z" stroke="black"/>
    <g id="Body">
        <path id="Rectangle 1" d="M55 194.5H54.5V195V254C54.5 255.381 55.6193 256.5 57 256.5H113C114.381 256.5 115.5 255.381 115.5 254V195V194.5H115H55Z" stroke="black"/>
        <rect id="Rectangle 5" x="54.5" y="131.5" width="61" height="62" stroke="black"/>
        <path id="Rectangle 6" d="M115 130.5H115.5V130V71C115.5 69.6193 114.381 68.5 113 68.5H57C55.6193 68.5 54.5 69.6193 54.5 71V130V130.5H55H115Z" stroke="black"/>
    </g>
    <path id="Bottom" d="M112.094 256.5H58.1516C56.319 256.5 55.1092 258.406 55.8895 260.064L62.0072 273.064C62.4195 273.941 63.3008 274.5 64.2692 274.5H107.123C108.16 274.5 109.089 273.861 109.459 272.893L114.429 259.893C115.055 258.256 113.846 256.5 112.094 256.5Z" stroke="black"/>
    <path id="Wing 2" d="M165.866 246.186L119.402 214.702C117.742 213.577 115.5 214.766 115.5 216.771V254.381C115.5 255.498 116.241 256.479 117.315 256.785L165.998 270.664C167.707 271.151 169.364 269.75 169.168 267.984L166.949 247.98C166.868 247.252 166.472 246.597 165.866 246.186Z" stroke="black"/>
    <path id="Wing 1" d="M4.13362 246.186L50.5976 214.702C52.2577 213.577 54.5 214.766 54.5 216.771V254.381C54.5 255.498 53.7593 256.479 52.6854 256.785L4.0017 270.664C2.29288 271.151 0.635593 269.75 0.831558 267.984L3.05126 247.98C3.132 247.252 3.52758 246.597 4.13362 246.186Z" stroke="black"/>
</g>
<g id="Thrust">
<path id="Line 3" d="M71 283V298" stroke="black" stroke-width="4" stroke-linecap="round"/>
<path id="Line 6" d="M87.3704 278V293" stroke="black" stroke-width="4" stroke-linecap="round"/>
<path id="Line 7" d="M87.3704 307V322" stroke="black" stroke-width="4" stroke-linecap="round"/>
<path id="Line 10" d="M96.1851 311V326" stroke="black" stroke-width="4" stroke-linecap="round"/>
<path id="Line 8" d="M79.8149 316V331" stroke="black" stroke-width="4" stroke-linecap="round"/>
<path id="Line 11" d="M105 295V310" stroke="black" stroke-width="4" stroke-linecap="round"/>
<path id="Line 12" d="M105 318V333" stroke="black" stroke-width="4" stroke-linecap="round"/>
<path id="Line 9" d="M96.1851 278V303" stroke="black" stroke-width="4" stroke-linecap="round"/>
<path id="Line 4" d="M71 308V322" stroke="black" stroke-width="4" stroke-linecap="round"/>
<path id="Line 5" d="M79.8149 284V309" stroke="black" stroke-width="4" stroke-linecap="round"/>
</g>
</g>
</svg>
