<svg viewBox="0 0 190 191"  xmlns="http://www.w3.org/2000/svg">
<ellipse cx="96.5" cy="94.5" rx="35.5" ry="34.5" />
<path d="M100.569 143.219C98.5689 140.219 91.5688 136.386 88.0689 138.719C84.5689 141.053 86.5689 146.219 86.5689 146.219C86.5689 146.219 91.0689 156.719 95.0689 161.719C99.0688 166.719 117.069 182.719 125.069 185.719C133.069 188.719 137.069 188.219 137.069 188.219C137.069 188.219 123.879 178.222 117.069 170.219C109.061 160.808 102.569 146.219 100.569 143.219Z" />
<path d="M132.065 125.254C128.537 124.508 120.852 126.663 119.982 130.778C119.112 134.894 124.154 137.189 124.154 137.189C124.154 137.189 134.713 141.548 141.069 142.325C147.425 143.103 171.481 141.954 179.297 138.504C187.114 135.055 189.624 131.9 189.624 131.9C189.624 131.9 173.204 133.977 162.74 133.018C150.434 131.89 135.592 126 132.065 125.254Z" />
<path d="M123.982 57.7705C123.353 61.3208 125.761 68.9298 129.903 69.6634C134.045 70.3969 136.172 65.2811 136.172 65.2811C136.172 65.2811 140.179 54.5833 140.745 48.2053C141.311 41.8272 139.366 17.8227 135.659 10.1246C131.953 2.42651 128.717 0.0225598 128.717 0.0225598C128.717 0.0225598 131.336 16.3647 130.725 26.8548C130.005 39.191 124.611 54.2202 123.982 57.7705Z" />
<path d="M88.9633 48.1794C90.9942 51.1586 98.0335 54.9194 101.509 52.55C104.985 50.1807 102.932 45.0349 102.932 45.0349C102.932 45.0349 98.3233 34.582 94.2719 29.6236C90.2204 24.6652 72.056 8.852 64.0255 5.93484C55.9949 3.01768 52.0003 3.55897 52.0003 3.55897C52.0003 3.55897 65.293 13.4195 72.1852 21.3514C80.2904 30.6791 86.9324 45.2003 88.9633 48.1794Z" />
<path d="M57.7597 66.7075C61.3086 67.3442 68.9229 64.9533 69.6658 60.8129C70.4086 56.6726 65.2976 54.5345 65.2976 54.5345C65.2976 54.5345 54.6088 50.5034 48.232 49.9228C41.8553 49.3423 17.8465 51.2338 10.1401 54.9232C2.43368 58.6125 0.0224839 61.843 0.0224839 61.843C0.0224839 61.843 16.3704 59.2602 26.8591 59.8953C39.1937 60.6422 54.2108 66.0707 57.7597 66.7075Z" />
<path d="M48.1425 102.96C51.2031 101.054 55.2519 94.1761 53.0284 90.6054C50.8048 87.0347 45.5785 88.8733 45.5785 88.8733C45.5785 88.8733 34.9439 93.0452 29.8222 96.888C24.7004 100.731 8.14937 118.226 4.90251 126.129C1.65565 134.032 2.03122 138.045 2.03122 138.045C2.03122 138.045 12.4332 125.172 20.6434 118.614C30.2984 110.901 45.0819 104.866 48.1425 102.96Z" />
<path d="M64.7898 132.884C65.4396 129.337 63.0769 121.714 58.9393 120.956C54.8018 120.198 52.6448 125.301 52.6448 125.301C52.6448 125.301 48.5743 135.975 47.9701 142.349C47.366 148.724 49.1688 172.739 52.8296 180.459C56.4905 188.179 59.712 190.603 59.712 190.603C59.712 190.603 57.1896 174.245 57.8635 163.759C58.656 151.427 64.14 136.43 64.7898 132.884Z" />
<path d="M142.761 90.1649C139.791 92.2093 136.062 99.2654 138.447 102.73C140.832 106.195 145.969 104.119 145.969 104.119C145.969 104.119 156.401 99.4633 161.341 95.3895C166.281 91.3157 182.012 73.08 184.892 65.0363C187.773 56.9926 187.214 53.0005 187.214 53.0005C187.214 53.0005 177.413 66.3376 169.513 73.2657C160.222 81.4129 145.731 88.1205 142.761 90.1649Z" />
<path d="M88.4999 165.5C86.3521 156.518 76 148.5 71.4999 150.5C66.9999 152.5 67.9999 158.5 67.9999 158.5C67.9999 158.5 71.0922 168.629 74.9999 174C80.4916 181.547 91.4999 192.5 92.4999 189C93.4999 185.5 90.6478 174.482 88.4999 165.5Z" />
<path d="M139.386 150.795C131.513 145.967 118.524 147.624 116.759 152.221C114.994 156.819 119.946 160.352 119.946 160.352C119.946 160.352 129.297 165.323 135.859 166.353C145.079 167.802 160.608 167.754 158.839 164.573C157.069 161.392 147.258 155.623 139.386 150.795Z" />
<path d="M165 101.724C155.95 103.565 147.585 113.639 149.431 118.204C151.277 122.77 157.308 121.974 157.308 121.974C157.308 121.974 167.536 119.228 173.036 115.504C180.766 110.272 192.086 99.6423 188.622 98.524C185.158 97.4057 174.05 99.882 165 101.724Z" />
<path d="M148.185 51.5743C143.463 59.5114 145.296 72.4765 149.917 74.1796C154.537 75.8828 158.003 70.8838 158.003 70.8838C158.003 70.8838 162.847 61.4658 163.789 54.8912C165.114 45.6517 164.856 30.125 161.699 31.9373C158.543 33.7495 152.907 43.6372 148.185 51.5743Z" />
<path d="M101.418 27.2277C103.441 36.2387 113.681 44.3994 118.208 42.4621C122.736 40.5248 121.819 34.5114 121.819 34.5114C121.819 34.5114 118.868 24.34 115.035 18.9158C109.648 11.293 98.793 0.188643 97.7445 3.67443C96.696 7.16022 99.395 18.2167 101.418 27.2277Z" />
<path d="M50.118 42.645C58.0058 47.4484 70.9892 45.7499 72.74 41.1473C74.4908 36.5446 69.528 33.0274 69.528 33.0274C69.528 33.0274 60.1606 28.0858 53.596 27.0757C44.3708 25.6562 28.8423 25.7529 30.6218 28.9283C32.4013 32.1038 42.2301 37.8416 50.118 42.645Z" />
<path d="M25.4003 89.6479C34.4581 87.8461 42.8671 77.809 41.0412 73.2356C39.2152 68.6622 33.1813 69.4314 33.1813 69.4314C33.1813 69.4314 22.9407 72.1329 17.4242 75.8319C9.67186 81.0301 -1.6949 91.6103 1.76418 92.7438C5.22326 93.8773 16.3425 91.4498 25.4003 89.6479Z" />
<path d="M39.7218 140.499C44.8169 132.797 43.6053 119.759 39.0714 117.837C34.5374 115.915 30.837 120.743 30.837 120.743C30.837 120.743 25.5485 129.919 24.2935 136.441C22.5299 145.607 22.0457 161.128 25.2854 159.469C28.5252 157.809 34.6267 148.202 39.7218 140.499Z" />
</svg>
